<svg xmlns="http://www.w3.org/2000/svg" width="64" height="64" viewBox="0 0 64 64" id="agile">
  <path d="m20.053 38.527c-.023-.174-.053-.346-.053-.527v-4c0-3.719 2.555-6.845 6-7.737v-6.263c0-2.209-1.791-4-4-4h-10v-4l-8 8 8 8v-4h5c.552 0 1 .448 1 1v17c0-1.496.835-2.786 2.053-3.473z" fill="#3cc8b4"></path>
  <path d="m60 20-8-8v4h-10c-2.209 0-4 1.791-4 4v6.346c1.843.656 3.273 2.189 3.787 4.095 1.307.659 2.213 1.999 2.213 3.559v4.556c1.19.694 2 1.97 2 3.444v-17c0-.552.448-1 1-1h5v4z" fill="#64c8f0"></path>
  <path d="m6 20 6-6v-2l-8 8 8 8v-2z" fill="#1eaa96"></path>
  <path d="m28 54v-4h8v4l-4 4z" fill="#d2aa82"></path>
  <path d="m44 60v-1.107c0-.758-.428-1.45-1.106-1.789l-6.894-3.104-4 4-4-4-6.894 3.104c-.678.339-1.106 1.031-1.106 1.789v1.107z" fill="#fa6450"></path>
  <path d="m24 60v-1.107c0-.758.428-1.45 1.106-1.789l4.136-1.862-1.242-1.242-6.894 3.104c-.678.339-1.106 1.031-1.106 1.789v1.107z" fill="#dc4632"></path>
  <path d="m42 40h-2v-6c0-1.105-.895-2-2-2h-12c-1.105 0-2 .895-2 2v6h-2c-1.105 0-2 .895-2 2v.764c0 .758.428 1.45 1.106 1.789l2.894 1.447v.343c0 1.061.421 2.078 1.172 2.828l1.657 1.657c.75.75 1.768 1.172 2.828 1.172h4.686c1.061 0 2.078-.421 2.828-1.172l1.657-1.657c.75-.75 1.172-1.768 1.172-2.828v-.343l2.894-1.447c.678-.339 1.106-1.032 1.106-1.789v-.764c0-1.105-.895-2-2-2z" fill="#f0c8a0"></path>
  <path d="m42 42c-2.209 0-4-1.791-4-4v-6h2c1.105 0 2 .895 2 2z" fill="#dc9600"></path>
  <path d="m20 38.562v-.562-4-9c0-.552-.448-1-1-1h-2c.552 0 1 .448 1 1v17c0-1.473.811-2.744 2-3.438z" fill="#1eaa96"></path>
  <path d="m40 20c0-2.209 1.791-4 4-4h-2c-2.209 0-4 1.791-4 4v6.346c.751.267 1.421.692 2 1.216z" fill="#46aad2"></path>
  <path d="m36 28h-8c-3.314 0-6 2.686-6 6v4c0 1.105.895 2 2 2h5.029c3.183 0 6.235-1.264 8.485-3.515l1.314-1.314c.75-.75 1.172-1.768 1.172-2.828v-.343c0-2.209-1.791-4-4-4z" fill="#fab400"></path>
  <path d="m30 42.5h-4c-.276 0-.5-.224-.5-.5s.224-.5.5-.5h4c.276 0 .5.224.5.5s-.224.5-.5.5z" fill="#be7800"></path>
  <circle cx="29" cy="43" fill="#be7800" r="1"></circle>
  <path d="m38 42.5h-4c-.276 0-.5-.224-.5-.5s.224-.5.5-.5h4c.276 0 .5.224.5.5s-.224.5-.5.5z" fill="#be7800"></path>
  <circle cx="35" cy="43" fill="#be7800" r="1"></circle>
  <path d="m32 48.499c-.641 0-1.28-.244-1.768-.731l-.586-.585c-.195-.195-.195-.512 0-.707s.512-.195.707 0l.586.585c.584.585 1.537.585 2.121 0l.586-.585c.195-.195.512-.195.707 0s.195.512 0 .707l-.586.585c-.487.487-1.127.731-1.767.731z" fill="#be7800"></path>
  <path d="m40 12-8-8-8 8h4v14h8v-14z" fill="#fa6450"></path>
  <path d="m32 4-8 8h2l7-7z" fill="#dc4632"></path>
  <path d="m28 12h2v14h-2z" fill="#dc4632"></path>
</svg>